<?xml version="1.0" encoding="UTF-8" standalone="no"?>
<!-- Created with Inkscape (http://www.inkscape.org/) -->

<svg
   version="1.1"
   id="svg1"
   width="4266.6665"
   height="2933.3333"
   viewBox="0 0 4266.6665 2933.3333"
   xmlns="http://www.w3.org/2000/svg"
   xmlns:svg="http://www.w3.org/2000/svg">
  <defs
     id="defs1" />
  <g
     id="g1">
    <g
       id="group-R5">
      <path
         id="path2"
         d="M 32000,22000 V 0 H 0 v 22000 h 32000"
         style="fill:#ffffff;fill-opacity:1;fill-rule:nonzero;stroke:none"
         transform="matrix(0.13333333,0,0,-0.13333333,0,2933.3333)" />
      <g
         id="g26">
        <path
           id="path19"
           d="m 22291.5,11525.8 c -109.4,-38.1 -218.8,-76.2 -328.2,-114.3 -59.1,160.2 -112.3,322.5 -159.4,486.7 57.9,22.6 115.8,45.2 173.7,67.8 76.1,29.7 152.3,59.5 228.4,89.2 62,24.2 124,48.5 185.9,72.7 39.9,-124.8 85.2,-247.8 137.1,-368 18.9,-43.9 38.9,-87.3 59.7,-130.3 -10.7,-3.9 -21.4,-7.8 -32.1,-11.6 -88.3,-30.7 -176.7,-61.5 -265.1,-92.2 z m -715.4,1573.6 c 55.9,5.2 111.8,10.5 167.7,15.8 78.4,7.4 156.9,14.8 235.3,22.2 65.5,6.2 131.1,12.4 196.6,18.5 8.3,-70.2 17.8,-140.4 28.6,-210.3 0.4,-3.9 1,-7.7 1.8,-11.4 3.1,-19.8 6.2,-39.7 9.5,-59.5 29.8,-180.4 67.5,-360.3 115,-537.4 -57.7,-22.6 -115.4,-45.1 -173.1,-67.6 -76.2,-29.8 -152.3,-59.5 -228.5,-89.3 -60.6,-23.7 -121.3,-47.4 -182,-71.1 -29,114.6 -50.2,209.7 -74.2,331.6 -25.3,129 -46.9,258.7 -64.9,388.9 -12.3,89.6 -22.9,179.5 -31.8,269.6 z m 602.7,3351.7 c 1.5,2.3 2.4,3.7 2.8,4.4 0.9,1.4 2,3.1 3.3,5.1 4.2,6.2 8.3,12.5 12.5,18.8 8.4,12.5 16.9,24.9 25.5,37.3 19.3,27.8 39.2,55.2 59.6,82.3 71.3,94.4 149.2,183.7 233.2,266.9 18.2,18.1 36.7,35.9 55.5,53.3 3.2,3 6.5,6 9.7,9 1.9,1.6 4.3,3.8 5.3,4.7 12.1,10.6 24.1,21.3 36.3,31.7 42.6,36.4 86.6,71.4 131.9,104.5 29.7,21.8 59.9,42.7 90.7,62.8 12.9,-25.6 25.8,-51.3 38.7,-76.9 20.6,-41 41.2,-81.9 61.8,-122.9 22.6,-44.8 45.2,-89.7 67.7,-134.6 22.9,-45.5 45.8,-91 68.7,-136.4 21.2,-42.3 42.5,-84.5 63.7,-126.7 18,-35.7 35.9,-71.4 53.9,-107.1 4.4,-8.7 8.7,-17.4 13.1,-26.1 -110.9,-56.5 -214.5,-128.3 -307,-210.2 -131.9,-116.6 -244.1,-250.2 -337.8,-397.9 -58.2,26.9 -116.5,53.9 -174.8,80.8 -75,34.7 -150.1,69.4 -225.1,104.1 -64.8,29.9 -129.6,59.9 -194.5,89.9 -0.2,0.1 -0.5,0.2 -0.7,0.3 32.6,72.2 67.7,143.2 105.7,212.8 31.5,57.8 64.9,114.6 100.3,170.1 z m 1188.5,914.2 c 7.7,2 15.5,4 23.2,5.8 1.4,0.4 6.5,1.6 10.1,2.4 3.5,0.8 7.9,1.7 9.1,2 6.3,1.3 12.6,2.6 18.8,3.8 15.7,3.1 31.5,6 47.3,8.7 55.6,9.3 111.8,15.6 168.2,18.8 26,1.5 52.1,2.3 78.2,2.4 14.8,0.1 29.6,0 44.4,-0.4 1.2,0 5,-0.1 8.5,-0.2 4.9,-0.3 15.2,-0.7 16.9,-0.8 61.9,-4 123.8,-11.2 185.1,-20.8 56.7,-8.8 113,-19.8 168.7,-33.2 27.5,-6.6 54.9,-13.7 82.1,-21.4 12.7,-3.6 25.4,-7.3 38.1,-11.1 5.5,-1.7 11,-3.4 16.5,-5.1 4.1,-1.3 8.2,-2.7 12.2,-4.1 106.7,-35.6 210.5,-79.9 310.2,-132 50.2,-26.3 99.5,-54.5 147.5,-84.7 6.3,-3.8 12.5,-7.8 18.6,-11.7 0.9,-0.6 1.7,-1.2 2.8,-1.9 10.8,-7.1 21.6,-14.4 32.3,-21.7 24.1,-16.5 47.9,-33.5 71.4,-50.9 27.9,-20.8 55.4,-42.2 82.4,-64.2 -17.5,-24.7 -35,-49.5 -52.5,-74.3 -24.5,-34.6 -49,-69.3 -73.4,-103.9 -26.9,-38 -53.7,-76 -80.5,-113.9 -26.9,-38.2 -53.9,-76.3 -80.8,-114.4 -25.3,-35.8 -50.5,-71.5 -75.7,-107.2 -21.4,-30.2 -42.7,-60.4 -64,-90.6 -5.1,-7.2 -10.2,-14.4 -15.2,-21.6 -152,91.5 -318.6,158.3 -497,192.8 -57.4,11.1 -114.9,18.6 -172.3,22.2 -11.3,2.7 -22.7,3.6 -33.3,2.1 -0.7,-0.1 -1.4,-0.3 -2.1,-0.4 -134.7,4.8 -268.8,-11.8 -399.8,-52.5 -16.5,32.7 -33,65.4 -49.4,98.1 -20.6,41 -41.2,81.9 -61.8,122.9 -22.6,44.8 -45.2,89.7 -67.7,134.6 -22.9,45.5 -45.8,90.9 -68.7,136.4 -21.2,42.3 -42.5,84.5 -63.7,126.7 -18,35.7 -35.9,71.4 -53.9,107.1 -5.2,10.4 -10.5,20.8 -15.7,31.2 95.7,47.1 195.4,86.1 298,115.1 12.2,3.4 24.5,6.8 36.9,9.9 z m 1397.9,-277.7 c -0.4,0.2 -0.5,0.3 0,0 z m 456,-387.8 c -0.7,0.7 7.9,-8.6 11.7,-12.8 3.6,-4 9.1,-10.1 9.9,-11 39.1,-44 76.7,-89.1 113,-135.3 72.7,-92.8 140,-189.8 201.9,-290.2 32.6,-52.8 63.5,-106.6 92.9,-161.3 3.3,-6.1 6.5,-12.2 9.8,-18.3 -2.2,4.1 -8.3,16.1 1.5,-3 6.3,-12.3 12.6,-24.6 18.9,-37 13.9,-28 27.6,-56.1 40.8,-84.4 26.7,-57.3 51.7,-115.3 75.3,-173.9 -52.9,-19.4 -105.7,-38.9 -158.5,-58.3 -74.6,-27.4 -149.2,-54.9 -223.8,-82.3 -64.5,-23.7 -129,-47.5 -193.4,-71.2 -1.7,-0.6 -3.3,-1.2 -5,-1.8 -56.6,106.7 -121.5,208.9 -195.7,305.4 -95,123.5 -203.9,235.5 -324.8,331.3 16.6,23.6 33.3,47.2 50,70.8 24.5,34.7 49,69.3 73.5,104 26.8,37.9 53.6,75.9 80.4,113.9 26.9,38.1 53.9,76.2 80.8,114.4 25.3,35.7 50.5,71.4 75.7,107.1 21.4,30.2 42.7,60.4 64,90.6 0.9,1.3 1.8,2.5 2.7,3.8 5.1,-5 10.3,-9.9 15.3,-14.9 18.9,-18.6 37.5,-37.5 55.8,-56.6 9.2,-9.6 18.3,-19.3 27.3,-29 z m 755.5,-1502.5 c 1.2,-5.2 2.3,-10.4 3.5,-15.7 7,-31.5 13.6,-63.2 19.9,-94.9 12.2,-61.9 23.2,-124 32.8,-186.4 13.4,-86.9 24.4,-174.1 33,-261.6 -42.4,2.2 -84.9,4.3 -127.3,6.4 -75.4,3.8 -150.8,7.5 -226.3,11.3 -64.9,3.2 -129.9,6.5 -194.9,9.7 -6.4,0.3 -12.7,0.7 -19.1,1 -1.5,10.8 -3.2,21.5 -4.9,32.3 -25.1,160.3 -62.3,319.3 -113.3,473.5 -1.1,6.2 -2.8,12.2 -5.3,18.1 -1,2.3 -2,4.5 -3.1,6.8 -18.9,55.3 -39.6,110 -62.2,163.8 51.2,18.9 102.3,37.7 153.5,56.5 74.5,27.4 149.1,54.9 223.7,82.3 61.8,22.7 123.5,45.4 185.2,68.1 34.8,-103.6 65.2,-208.8 91.3,-315 3.9,-15.6 7.6,-31.3 11.3,-46.9 0.3,-1.4 1.6,-6.7 2.2,-9.3 z m -1197.3,-3679 c 120.9,202.7 222.5,416.8 310.1,636.3 55.3,-18.9 110.5,-37.7 165.8,-56.6 78.6,-26.8 157.2,-53.6 235.8,-80.5 67.6,-23 135.2,-46.1 202.8,-69.2 3.9,-1.3 7.8,-2.6 11.6,-4 -6.6,-19.5 -13.2,-39 -20,-58.5 -19.4,-55.5 -39.5,-110.8 -60.5,-165.7 -41.7,-109.6 -86.7,-218 -135.8,-324.5 -29.5,-64 -60.5,-127.3 -93.2,-189.8 -205.5,104.2 -411.1,208.3 -616.6,312.5 z m -662.6,505.3 c -89,71.6 -177.9,143.3 -266.9,214.9 0.5,24.1 1,48.1 1.4,72.2 2.1,103.1 4.1,206.2 6.2,309.3 3,151.9 6.1,303.8 9.1,455.7 2.5,127.9 5.1,255.7 7.6,383.6 112.2,-60.5 224.4,-121 336.6,-181.4 139,-74.9 277.9,-149.8 416.8,-224.6 120.5,-65 241,-129.9 361.5,-194.9 32,-17.2 63.9,-34.9 95.9,-52.3 -11.2,-38.3 -22.6,-76.5 -34.4,-114.6 -3.5,-11.2 -7,-22.4 -10.6,-33.6 0,0 0,-0.1 0,-0.2 -1.4,-4.3 -2.8,-8.7 -4.2,-13.1 -8.1,-24.9 -16.3,-49.9 -24.7,-74.7 -31.3,-92.7 -64.6,-184.7 -100.2,-275.8 -71.6,-183.3 -152.4,-363.3 -245.5,-536.7 -21.9,-40.8 -44.5,-81.1 -67.8,-121 -14.9,12 -29.8,24 -44.7,36 -145.4,117.1 -290.7,234.1 -436.1,351.2 z m -2572.5,1603.2 c -2.9,131.4 -2.1,262.9 2.4,394.3 1.3,39.2 1.3,38.3 3.4,79.3 1.7,34.2 3.7,68.5 5.9,102.7 2.6,40.6 5.7,81.2 9.1,121.8 60.6,-0.6 121.3,-1.2 181.9,-1.8 76.9,-0.8 153.7,-1.6 230.5,-2.4 56.9,-0.5 113.8,-1.1 170.7,-1.7 -7.7,-105.4 -12.2,-211.1 -14.2,-316.9 -0.2,-8.9 -0.2,-17.7 -0.4,-26.7 -0.6,-6.3 -0.7,-12.6 -0.2,-18.9 -2.3,-194.8 4.5,-389.9 20.6,-584.2 -55.8,-5.3 -111.5,-10.5 -167.3,-15.8 -78.4,-7.4 -156.9,-14.8 -235.3,-22.2 -64.4,-6.1 -128.8,-12.1 -193.2,-18.2 -6.9,103.4 -11.6,207.1 -13.9,310.7 z m 719.9,1427.8 c -0.7,-2.4 -1.3,-4.8 -1.9,-7.3 -0.8,-3.2 -1.7,-6.5 -2.5,-9.7 -41.9,-165.5 -71.3,-333.4 -91.2,-502.5 -61.3,0.6 -122.7,1.2 -184,1.8 -76.8,0.8 -153.6,1.6 -230.5,2.4 -55.9,0.5 -111.8,1.1 -167.7,1.7 24.9,216.7 60.1,432.3 106,645.6 27.9,130 60,259.1 97.5,386.7 8.4,28.5 17,57 26,85.4 0.8,2.7 1.8,5.8 2.1,6.7 2.3,7.2 4.7,14.4 7.1,21.6 5.9,18.1 12,36.1 18.2,54 14.5,42.4 29.9,84.5 45.9,126.3 53.1,-24.5 106.2,-49 159.3,-73.6 75,-34.7 150,-69.4 225,-104 62.6,-29 125.2,-57.9 187.8,-86.9 -85.9,-174.3 -148.5,-360.2 -197.1,-548.2 z m 3048.8,-743.2 c 2.2,-51.7 3.2,-103.5 3,-155.3 -2.2,0.8 -4.5,1.7 -6.7,2.6 -126.6,48.1 -253.2,96.2 -379.8,144.3 -154.5,58.7 -309,117.4 -463.5,176 -136,51.7 -272.1,103.4 -408.2,155.2 -53,20.1 -106,40.2 -158.9,60.3 1,54.8 2.1,109.5 3.2,164.2 3.8,191 7.6,382 11.4,573 0.6,26.9 1.1,53.8 1.7,80.7 114.5,-40 229,-79.9 343.6,-119.9 141,-49.1 281.9,-98.3 422.9,-147.5 121.5,-42.3 242.9,-84.7 364.4,-127 46.6,-16.3 93.2,-32.6 139.9,-48.8 17.2,-54.6 32.7,-109.7 46.5,-165.3 2.6,-10.7 5.2,-21.4 7.8,-32.1 0.2,-1.1 0.4,-2 0.6,-2.9 1.1,-4.6 2.1,-9.3 3.2,-14 5.6,-25.7 10.8,-51.5 15.8,-77.3 9.9,-51.9 18.4,-104.1 25.6,-156.4 14.1,-102.8 23.2,-206.2 27.5,-309.8 z m -93.1,-1797.6 c 84.1,254.7 155.6,514.2 210.2,777 53.7,-9.5 107.5,-19 161.3,-28.6 75.9,-13.4 151.8,-26.8 227.7,-40.3 62.7,-11.1 125.5,-22.2 188.2,-33.3 -22.8,-143.3 -49.5,-285.9 -79.9,-427.7 -44.1,-205.6 -96.5,-409.2 -156.6,-610.6 -53,18.1 -106,36.2 -159,54.3 -78.6,26.8 -157.3,53.6 -235.9,80.5 -67.6,23 -135.2,46.1 -202.8,69.2 -2.4,0.8 -4.8,1.6 -7.2,2.5 18.6,52.1 36.6,104.5 54,157 z m -1340.8,1189.9 c 3.6,179.5 7.2,359 10.7,538.5 1.5,74.1 3,148.2 4.5,222.2 3.7,-1.4 7.5,-2.8 11.2,-4.2 129.4,-49.2 258.8,-98.4 388.2,-147.5 157.4,-59.8 314.9,-119.6 472.3,-179.5 135.3,-51.4 270.6,-102.8 405.9,-154.2 45,-17.1 89.9,-34.4 134.9,-51.4 -2.8,-34.2 -6.1,-68.2 -9.9,-102.2 -13.9,-125.1 -32.8,-249.6 -55.9,-373.5 -1.8,-5.3 -3.1,-10.8 -3.9,-16.5 -0.4,-2.7 -0.6,-5.5 -0.8,-8.2 -26,-136.3 -57,-271.6 -91.8,-405.8 -8.8,4.7 -17.6,9.5 -26.3,14.2 -113.8,61.3 -227.5,122.6 -341.2,183.8 -138.1,74.5 -276.2,148.9 -414.2,223.3 -120.4,64.8 -240.7,129.7 -361,194.5 -40.9,22.1 -81.7,44.5 -122.7,66.5 z m -1525.4,430.5 c 0,-0.9 -0.1,-1.6 -0.1,-1.8 0,0.6 0.1,1.2 0.1,1.8 z m 0.2,3.8 c 0,0.9 0,1.9 0.1,2.9 0.5,13.8 0.1,4.2 -0.1,-2.9 z m 1344.8,1357.2 c -3.4,-170.6 -6.8,-341.3 -10.2,-511.8 -1.9,-96.8 -3.8,-193.6 -5.8,-290.3 -10,-4.3 -20.1,-8.5 -30.2,-12.8 -114.5,-48.4 -229,-96.8 -343.6,-145.2 -151,-63.8 -301.9,-127.7 -452.9,-191.5 -138,-58.3 -276,-116.6 -414,-174.9 -29.5,-12.5 -58.9,-24.9 -88.4,-37.4 0.1,1.5 0.1,3.1 0.2,4.6 0.2,4.5 0.4,9.1 0.6,13.6 0.4,10.2 0.9,20.5 1.5,30.7 1.1,21.4 2.3,42.8 3.7,64.2 3.5,54.4 7.8,108.9 13.1,163.2 1.3,6.1 1.9,12.4 1.8,18.8 9.6,95.6 22.1,191 38.3,285.8 13.3,78.3 29.4,156.1 47.8,233.4 29.5,13.1 59,26.2 88.5,39.2 114.8,51 229.6,102 344.4,153 138.9,61.6 277.7,123.3 416.6,185 120.1,53.3 240.2,106.6 360.2,159.9 9.5,4.2 19,8.3 28.4,12.5 z m -1317.4,-2219 c -0.1,2.7 -0.3,5.4 -0.7,8.2 -0.1,0.8 -0.3,1.6 -0.4,2.4 -15,151.6 -24.5,303.8 -28.6,456.1 -1.3,50.2 -2,100.5 -2.1,150.9 28.1,11.9 56.3,23.8 84.5,35.7 122.8,51.9 245.7,103.8 368.6,155.8 149.5,63.1 299,126.3 448.5,189.5 128.4,54.3 256.8,108.6 385.2,162.8 13.8,5.9 27.8,11.7 41.7,17.5 -0.5,-27.5 -1.1,-55 -1.6,-82.5 -4.1,-205.5 -8.2,-411 -12.3,-616.5 -0.3,-15.8 -0.7,-31.6 -1,-47.4 -11.1,-5.2 -22.1,-10.4 -33.2,-15.5 -109.2,-51 -218.3,-102 -327.5,-153 -141.2,-65.9 -282.3,-131.8 -423.5,-197.8 -128.1,-59.8 -256.2,-119.6 -384.4,-179.5 -31.7,-14.8 -63.5,-29.7 -95.3,-44.5 -6.7,52.5 -12.6,105.1 -17.9,157.8 z m 3701.1,1145.8 c 5,-92.7 7.5,-185.4 7.6,-278.2 0,-62.2 -1.1,-124.4 -3.2,-186.5 0,1.6 -0.5,-11.7 -0.7,-18.3 -0.2,-4.5 -0.5,-11.5 -0.5,-12.8 -0.7,-14.5 -1.4,-29 -2.2,-43.5 -1.5,-27.5 -3.2,-55 -5.1,-82.4 -7.6,-110.3 -18.3,-220.4 -31.5,-330.1 -2.7,-22.2 -5.6,-44.3 -8.4,-66.4 -51.7,9.2 -103.4,18.3 -155,27.5 -75.9,13.4 -151.8,26.9 -227.7,40.3 -61.8,11 -123.5,21.9 -185.2,32.8 5.4,32 10.7,64 15.6,96.1 19.8,128.9 33.6,258.7 40.6,388.8 0.3,2.7 0.4,5.4 0.5,8.1 7.9,150.8 6.7,302 -4.8,452.5 42,-2.1 83.9,-4.2 125.9,-6.3 75.5,-3.7 150.9,-7.5 226.3,-11.2 65,-3.3 130,-6.5 195,-9.8 4.2,-0.2 8.5,-0.4 12.8,-0.6 z m -1960.2,1841.7 c 43.6,-16.6 87.6,-30.9 130.4,-49.6 42.2,-18.5 83.6,-39.1 123.9,-61.5 19.6,-11 38.9,-22.3 57.9,-34.1 4.7,-3 9.4,-6 14.1,-8.9 9.6,-6.5 19.3,-12.9 28.8,-19.5 3.1,-2.4 6.3,-4.7 9.6,-6.8 73.4,-51.9 142.4,-110.2 206.3,-173.4 16.3,-16.1 32.3,-32.5 48,-49.2 3.7,-4 7.3,-8 11,-12 0.4,-0.4 0.8,-0.9 1.3,-1.5 8.5,-9.7 17,-19.3 25.4,-29 32,-37.5 62.5,-76.2 91.6,-115.9 57.9,-78.9 110.2,-161.8 156.6,-247.9 2,-3.6 4,-7.3 5.9,-11 0.6,-1.2 1.2,-2.4 1.6,-3.3 5.5,-10.7 10.9,-21.4 16.2,-32.2 3.8,-7.7 7.5,-15.4 11.2,-23.2 1.6,-3.6 3.3,-7.2 5.2,-10.7 6,-12.9 12,-25.8 17.8,-38.7 0.4,-0.8 0.7,-1.6 1,-2.3 -90.7,31.6 -181.4,63.2 -272.1,94.9 -142.3,49.6 -284.6,99.2 -427,148.9 -121.2,42.2 -242.4,84.5 -363.6,126.8 -34.6,12 -69.1,24.2 -103.6,36.3 1.2,59.2 2.3,118.4 3.5,177.5 2.3,116.4 4.7,232.7 7,349.1 0.3,13.4 0.6,26.9 0.9,40.4 23.7,-3.7 47.3,-8 70.8,-12.8 22.6,-4.7 45.1,-10 67.5,-15.8 12.4,-3.2 24.7,-6.6 36.9,-10.1 8.6,-2.5 45.8,-15.9 15.9,-4.5 z m -565.3,34.9 c 2.5,0.7 5.1,1.2 7.5,1.5 -1.7,-0.3 -4.8,-0.9 -7.5,-1.5 z m -794.3,-601.2 c 1.4,1.9 3.3,4.7 4.4,6.2 4,6 8,12 12.1,18 7.3,10.7 14.7,21.4 22.2,32 16,22.3 32.5,44.3 49.5,65.9 29.7,37.6 61,74 93.8,108.9 15.2,16.2 30.7,32 46.6,47.6 8.8,8.6 17.7,17.2 26.7,25.6 3.6,3.3 7.6,6.6 10.9,10.1 -1.1,-1.1 -2,-2.1 -2.8,-3 1.6,1.7 3.2,3.3 4.2,4.2 68.4,60.4 142.1,115 220.6,161.6 18.8,11.2 38,23.5 57.9,32.5 -28.9,-13.1 9.2,4.3 14.8,7 11.1,5.3 22.2,10.5 33.4,15.5 41.4,18.6 83.8,34.8 127,48.4 21.1,6.6 42.3,12.7 63.8,18 1.9,0.5 4,1.1 6,1.8 1.2,0.2 3.1,0.5 6,1.1 12.1,2.5 24.2,4.9 36.3,7 39.4,7 79.2,11.5 119.2,13.8 -0.1,-5.2 -0.2,-10.3 -0.3,-15.5 -2.1,-103.1 -4.2,-206.2 -6.2,-309.3 -1.7,-86.7 -3.5,-173.3 -5.2,-260 -17.5,-7.7 -34.9,-15.5 -52.4,-23.2 -109.5,-48.7 -219,-97.3 -328.6,-145.9 -137.1,-60.9 -274.3,-121.8 -411.5,-182.8 -123.4,-54.7 -246.8,-109.5 -370.2,-164.3 -1.1,-0.5 -2.2,-1 -3.4,-1.5 5.9,17.3 12,34.6 18.2,51.8 36.7,100.8 79.4,199.5 129.6,294.4 5,9.5 10.1,19 15.2,28.5 3.2,4.7 6.1,9.6 8.5,15 0.4,1 0.7,1.9 1.1,2.9 16.4,30 33.6,59.6 52.6,87.7 z m 151.3,-3895.4 c -43.2,-26.8 -86.3,-53.5 -129.5,-80.3 -1.5,3.1 -3,6.1 -4.4,9.2 -18.8,39.9 -36.9,80.2 -54.1,120.8 -35.8,84 -68.3,169.3 -98,255.5 -21.1,61.4 -40.7,123.3 -59.1,185.6 -1,5.5 -2.7,11.1 -4.9,16.5 -5.9,20.4 -11.8,40.8 -17.4,61.3 -12.8,46 -24.8,92.3 -36.2,138.6 -5.5,22.1 -10.7,44.2 -15.9,66.3 -0.6,2.7 -1.2,5.5 -1.8,8.2 -0.1,0.5 -0.2,0.9 -0.3,1.3 -3,13.6 -6.1,27.2 -9,40.8 -19.3,89.1 -36.3,178.8 -51.3,268.8 21,9.8 41.9,19.5 62.8,29.3 116.1,54.2 232.1,108.4 348.2,162.6 140.4,65.6 280.8,131.2 421.2,196.7 121.3,56.7 242.7,113.4 364,170.1 10,4.6 20.1,9.2 30.1,13.8 -1.9,-94.6 -3.8,-189.3 -5.7,-284 -3.2,-161.9 -6.4,-323.8 -9.6,-485.8 -2.4,-116.3 -4.7,-232.7 -7,-349 -0.7,-33.4 -1.7,-66.9 -2.4,-100.3 -239.9,-148.7 -479.8,-297.4 -719.7,-446"
           style="fill:#080909;fill-opacity:1;fill-rule:nonzero;stroke:none"
           transform="matrix(0.13333333,0,0,-0.13333333,0,2933.3333)" />
        <path
           id="path20"
           d="m 23026,16008.7 c -5.4,-5.5 -11.3,-12.1 0,0 v 0"
           style="fill:#080909;fill-opacity:1;fill-rule:nonzero;stroke:none"
           transform="matrix(0.13333333,0,0,-0.13333333,0,2933.3333)" />
        <path
           id="path21"
           d="m 25413.2,8789.9 c -66.1,6.3 -132.1,12.6 -198.2,18.9 -49.4,4.8 -98.8,9.5 -148.1,14.2 -22.2,-89.3 -55,-174.2 -97.1,-256 -29.4,-57.2 -65.5,-110.7 -106.9,-159.9 41.1,-20.2 82.2,-40.5 123.3,-60.7 66.2,-32.7 132.5,-65.4 198.7,-98 44,-21.7 88.1,-43.4 132.2,-65.2 32.8,49.7 62.5,101.4 89.2,154.7 62,131.8 105.3,271.3 133.9,413.9 1.5,8.5 3.1,17 4.5,25.5 -43.8,4.2 -87.6,8.3 -131.5,12.6 z m -725.7,94.1 c -89.2,-45.6 -178.5,-91.2 -267.8,-136.8 -75.8,-38.7 -151.5,-77.5 -227.4,-116.2 -13.9,-7.1 -27.8,-14.3 -41.7,-21.4 2,-17.9 4.1,-35.7 6.3,-53.6 6.7,-57.4 13.5,-114.7 20.2,-172.1 2.6,-21.4 5.1,-42.8 7.6,-64.2 12.2,1.3 24.3,2.6 36.3,4.3 65.6,8.8 130.5,23.2 193.1,44.4 53.8,20.5 105.5,46.4 153.6,78.2 41.2,29.8 79.1,63.9 113.3,101.7 38,45.8 70.3,96 97.4,149.1 7.3,15.6 14.3,31.3 20.8,47.2 27.3,67.4 47,137.6 61.4,208.9 1.3,6.9 2.5,13.8 3.6,20.7 -58.9,-30.1 -117.8,-60.1 -176.7,-90.2 z M 23947,8371.9 c -7.2,61 -14.4,122 -21.6,183 -0.9,7.9 -1.8,15.8 -2.8,23.7 -71.7,13 -143.4,25.9 -215.1,38.8 -98.6,17.9 -197.2,35.6 -295.8,53.5 -38.9,7 -77.7,14 -116.6,21 43.9,-56.3 92.4,-108.8 145.8,-156.3 59.1,-49.5 123.5,-92.4 192.2,-127.4 72.9,-34.1 149.7,-59.1 228.4,-75.3 17.7,-3.1 35.5,-5.9 53.2,-8.1 5.6,-0.2 11.1,-0.9 16.6,-2 7.3,-0.8 14.5,-1.6 21.8,-2.3 -2,17.1 -4.1,34.3 -6.1,51.4 z m -953.2,358.3 c -11.4,19.7 -22.2,39.8 -32.8,60 -2.3,3.9 -4.5,7.9 -6.3,12.1 -37.2,72.7 -69.3,147.9 -97.3,224.5 -13.8,37.7 -26.8,75.7 -39.1,113.9 -49.4,-13.7 -98.9,-27.3 -148.3,-40.9 -64.7,-17.9 -129.4,-35.7 -194.2,-53.6 -35.7,-9.8 -71.4,-19.7 -107.1,-29.5 11.2,-35.1 23.1,-70.1 35.4,-104.9 73.6,-200.4 167,-393.6 287.1,-570.5 1,-1.4 2,-2.8 3,-4.2 46.3,29.1 92.6,58.3 138.9,87.4 57.2,36 114.5,72.1 171.7,108.1 27.6,17.3 55.1,34.7 82.6,52 -33.8,46.9 -65,95.7 -93.6,145.6 z m 1885.9,732.9 c -2.4,9.5 -3.2,18.9 -2.5,28.3 -4,42.7 -9,85.4 -14.7,127.9 -2.5,-1.5 -4.9,-3 -7.4,-4.5 -85.1,-52.7 -170.2,-105.3 -255.4,-157.9 -92.6,-57.3 -185.2,-114.6 -277.8,-171.8 -70,-43.3 -140.1,-86.6 -210.1,-129.9 -7.9,-4.9 -15.9,-9.8 -23.9,-14.7 5.7,-47.9 11.4,-95.7 17,-143.6 5.6,-47.5 11.2,-95 16.8,-142.5 71.8,36.7 143.6,73.4 215.5,110 93.3,47.8 186.7,95.5 280.1,143.1 77.7,39.7 155.3,79.4 233.1,119.1 12.1,6.2 24.3,12.4 36.4,18.6 0.1,7 0.2,14 0.2,20.9 0.3,65.7 -2.5,131.4 -7.3,197 z m -1007.3,-458.7 c -5,43.1 -10.1,86.1 -15.2,129.2 -17.8,3.5 -35.7,7.1 -53.5,10.6 -95.5,19 -190.9,38 -286.3,57 -107.8,21.4 -215.6,42.8 -323.3,64.3 -61.3,12.2 -122.6,24.4 -183.9,36.6 15.8,-57.5 33.4,-114.5 53.2,-170.7 10.2,-27.9 20.8,-55.7 32.2,-83.1 13.2,-32 27.3,-63.6 42.2,-94.8 15.6,-2.9 31.1,-5.9 46.7,-8.7 80.5,-14.5 161,-29.1 241.6,-43.6 93.2,-16.8 186.4,-33.7 279.6,-50.5 63,-11.4 125.9,-22.7 188.9,-34.1 -7.4,62.6 -14.8,125.2 -22.2,187.8 z m 1698,421.8 c -42,-4 -83.9,-7.9 -125.8,-11.8 -65.5,-6.2 -130.9,-12.4 -196.4,-18.5 -44.5,-4.2 -89.1,-8.4 -133.7,-12.6 4.3,-85.9 4.5,-172.1 -1.2,-258 -1.6,-24.8 -3.7,-49.6 -6.4,-74.2 48,-4.7 96,-9.3 144,-13.8 66.1,-6.3 132.2,-12.7 198.3,-19 41,-3.9 81.9,-7.8 122.8,-11.7 9.9,139.5 8.3,279.9 -1.6,419.6 z m -774.5,552.2 c -14.6,62.8 -30.6,125.3 -48.1,187.4 -1.8,6.3 -3.7,12.6 -5.5,18.9 -10,-6 -19.9,-12.1 -29.8,-18.1 -85.3,-52.2 -170.8,-104.4 -256.1,-156.5 -91.1,-55.7 -182.2,-111.3 -273.2,-166.9 -55.4,-33.8 -110.7,-67.7 -166.1,-101.5 4.4,-37.4 8.8,-74.8 13.2,-112.2 7.2,-61 14.4,-122 21.6,-183 2.1,-17.9 4.2,-35.7 6.3,-53.6 2.1,1.3 4.2,2.6 6.3,3.8 79.1,49 158.2,97.9 237.3,146.8 91.2,56.3 182.4,112.8 273.7,169.2 75.4,46.6 150.8,93.2 226.3,139.9 6.3,3.9 12.7,7.8 19,11.8 -7.8,38.1 -16,76.1 -24.9,114 z m -975.4,-533.1 c -6.8,57.4 -13.6,114.8 -20.4,172.2 -3.8,32.6 -7.6,65.3 -11.5,97.9 -36.9,12.4 -73.8,24.9 -110.7,37.4 -93.6,31.6 -187.3,63.2 -280.9,94.9 -102.6,34.6 -205.2,69.3 -307.8,104 -64.4,21.7 -128.8,43.5 -193.2,65.3 1.5,-25.8 3.2,-51.5 5.2,-77.3 4.2,-50.2 9.3,-100.4 15.3,-150.5 9.9,-81.1 22.1,-161.9 37.3,-242.2 26.3,-5.2 52.5,-10.5 78.8,-15.7 95.4,-18.9 190.9,-38 286.4,-56.9 110.2,-22 220.4,-43.9 330.6,-65.8 59.8,-11.9 119.6,-23.8 179.4,-35.7 -2.8,24.1 -5.7,48.3 -8.5,72.4 z M 22744.4,9417 c -1.3,4.4 -2.3,9 -2.9,13.6 -16.5,78.1 -30.1,156.9 -41.2,235.9 -13.9,99.8 -23.6,199.9 -30.9,300.3 -2.2,29.4 -3.9,58.8 -5.4,88.3 -120.7,-10.7 -241.3,-21.4 -361.9,-32.1 -48.9,-4.3 -97.7,-8.6 -146.5,-12.9 7.5,-50.5 15.3,-100.9 23.4,-151.3 33.5,-208.2 72.7,-416.2 125.7,-620.4 48.4,13.3 96.8,26.7 145.3,40 64.7,17.9 129.4,35.8 194.1,53.6 37.5,10.3 74.9,20.6 112.3,31 -4.2,17.9 -8.1,35.9 -12,54 z m 899.5,-1262.9 c -60.3,21.8 -119,49.3 -174.9,80.7 -83.6,47 -160.6,106.6 -229.7,173.5 -0.5,-0.4 -1,-0.7 -1.5,-1 -49.3,-31 -98.6,-62.1 -147.9,-93.1 -57.2,-36 -114.5,-72.1 -171.7,-108.1 -26.7,-16.8 -53.3,-33.5 -79.9,-50.3 53.2,-59.7 110,-116.1 170.3,-169 120.7,-102.5 253.3,-190.4 395.1,-261 4.6,-2.2 9.2,-4.4 13.8,-6.5 37.5,52 75,104.2 112.5,156.3 44,61.1 88,122.1 131.9,183.2 17.5,24.4 35,48.7 52.5,73 -23.7,6.6 -47.2,13.9 -70.5,22.3 z m 1390.7,-87.2 c -66.2,32.6 -132.4,65.3 -198.7,98 -52.7,25.9 -105.5,52 -158.2,78 -36,-23.3 -73.6,-43.8 -112.2,-61.1 -102,-45.9 -211.3,-74.6 -322.4,-86.9 -48.4,-5.4 -96.9,-8.9 -145.5,-10 -7.3,-1 -14.5,-1.1 -21.6,-0.4 -36.3,-0.4 -72.6,0.6 -108.8,3.2 -4.9,-6.7 -9.7,-13.4 -14.6,-20.2 -37.9,-52.6 -75.8,-105.2 -113.7,-157.9 -43.9,-61 -87.8,-122.1 -131.8,-183.2 -22.5,-31.3 -45,-62.6 -67.5,-93.8 61.5,-19.5 124.1,-35.7 187.5,-48.4 131.6,-23.5 265.4,-31.6 398.8,-22.5 133.8,12.2 265.7,40.9 392.7,85.1 119.5,44.4 233.7,102.4 339.7,173.3 76,53.5 147.2,113.5 212.2,179.9 -45.4,22.2 -90.6,44.6 -135.9,66.9"
           style="fill:#080909;fill-opacity:1;fill-rule:nonzero;stroke:none"
           transform="matrix(0.13333333,0,0,-0.13333333,0,2933.3333)" />
        <path
           id="path22"
           d="m 25544.1,9654.1 c -42,-3.9 -84,-7.9 -125.9,-11.9 -65.5,-6.1 -131,-12.2 -196.4,-18.4 -42.2,-4 -84.3,-8 -126.4,-11.9 -3.1,26.8 -6.6,53.5 -10.4,80.3 -6.4,45.2 -13.8,90.3 -21.9,135.2 -0.3,1.7 -0.6,3.3 -1,4.8 -6.3,34.7 -12.9,69.3 -20.1,103.7 -14.4,68.5 -30.4,136.6 -48.2,204.3 -10.3,39.6 -21.3,79 -32.8,118.3 30.3,2.7 60.7,5.3 91,8.1 109.5,9.6 219.1,19.4 328.6,29.1 3.3,-8.8 6.5,-17.6 9.8,-26.4 70.4,-199.7 122.1,-405.8 153.7,-615.2"
           style="fill:#080909;fill-opacity:1;fill-rule:nonzero;stroke:none"
           transform="matrix(0.13333333,0,0,-0.13333333,0,2933.3333)" />
      </g>
    </g>
  </g>
</svg>
